<svg id="Layer_1" data-name="Layer 1" xmlns="http://www.w3.org/2000/svg" viewBox="0 0 682.32 95.73"><title>natura&amp;amp;co</title><path d="M212.22,542.37l-32.57-36.85v39.79h-21V478.42a6.31,6.31,0,0,1,6.95-6.95h4a12.14,12.14,0,0,1,4.74.87,11.16,11.16,0,0,1,3.81,2.74l32.44,36.71V472.14h21.1V539a6.31,6.31,0,0,1-6.95,7h-4a12.14,12.14,0,0,1-4.74-.87,11,11,0,0,1-3.81-2.74" transform="translate(-158.68 -451.72)"/><path d="M277,547.44a32.34,32.34,0,0,1-13.89-3,34,34,0,0,1-11-8.14,37.4,37.4,0,0,1-7.21-12.22,43.65,43.65,0,0,1-2.61-15.22,43,43,0,0,1,2.67-15.16,39.32,39.32,0,0,1,7.28-12.35,34,34,0,0,1,11.08-8.27A32.12,32.12,0,0,1,277.24,470a29.12,29.12,0,0,1,12.15,2.53,27.44,27.44,0,0,1,9.75,7.48v-7.88H319.3v73.17H300.21v-8.95a26.77,26.77,0,0,1-10.15,8.28,30.53,30.53,0,0,1-13.08,2.8m4.67-18.55A17.58,17.58,0,0,0,295.27,523a20.64,20.64,0,0,0,5.34-14.42,20.19,20.19,0,0,0-5.34-13.95,17.5,17.5,0,0,0-13.62-5.94,16.6,16.6,0,0,0-13.15,5.94,21,21,0,0,0-5.14,14.22,20.69,20.69,0,0,0,5.14,14.22,16.77,16.77,0,0,0,13.15,5.81" transform="translate(-158.68 -451.72)"/><path d="M360.15,545.31q-12.81,0-20.09-6.95t-7.28-19.09V451.72h21.63v20.42H373.5v18.29H354.41V517.8a9,9,0,0,0,2.54,6.74q2.54,2.48,7.34,2.48h9.21v18.29Z" transform="translate(-158.68 -451.72)"/><path d="M420.9,547.44q-17.08,0-26.5-9.48T385,512.46V472.14h22.16v41.53q0,6.8,3.34,11.14t10.41,4.34q7.22,0,10.48-4.34t3.27-11.14V472.14h22.16v40.32q0,16.15-9.41,25.57t-26.5,9.41" transform="translate(-158.68 -451.72)"/><path d="M496.73,472.14h13.35v18.29h-9.21c-3.2,0-5.65.83-7.34,2.47a9,9,0,0,0-2.54,6.74v45.67H469.36V498.18q0-12.15,7.28-19.09t20.09-6.95" transform="translate(-158.68 -451.72)"/><path d="M549.34,547.44a32.34,32.34,0,0,1-13.89-3,34,34,0,0,1-11-8.14,37.4,37.4,0,0,1-7.21-12.22,43.64,43.64,0,0,1-2.6-15.22,42.77,42.77,0,0,1,2.67-15.16,39.11,39.11,0,0,1,7.27-12.35,34,34,0,0,1,11.08-8.27,32.12,32.12,0,0,1,14-3.07,29.12,29.12,0,0,1,12.15,2.53A27.44,27.44,0,0,1,571.5,480v-7.88h20.16v73.17H572.57v-8.95a26.77,26.77,0,0,1-10.15,8.28,30.56,30.56,0,0,1-13.08,2.8M554,528.89A17.58,17.58,0,0,0,567.63,523,20.64,20.64,0,0,0,573,508.59a20.19,20.19,0,0,0-5.34-13.95A17.5,17.5,0,0,0,554,488.7a16.6,16.6,0,0,0-13.15,5.94,21,21,0,0,0-5.14,14.22,20.69,20.69,0,0,0,5.14,14.22A16.77,16.77,0,0,0,554,528.89" transform="translate(-158.68 -451.72)"/><path d="M642.22,546.91a33.75,33.75,0,0,1-11.08-1.67,24.51,24.51,0,0,1-8-4.41,17.77,17.77,0,0,1-4.8-6.34,18.15,18.15,0,0,1-1.6-7.47,20.31,20.31,0,0,1,2.8-10.15q2.81-4.93,10.55-9.08l3.6-2a29.56,29.56,0,0,1-5.87-9,22.54,22.54,0,0,1-1.74-8.28,18.35,18.35,0,0,1,6.81-14.42,24.51,24.51,0,0,1,16.56-5.87,25.25,25.25,0,0,1,9.48,1.67,20.46,20.46,0,0,1,6.94,4.47,19.73,19.73,0,0,1,4.27,6.28,18,18,0,0,1,1.47,7.08,19.77,19.77,0,0,1-3.6,11.48,33.45,33.45,0,0,1-10,9.21l8.68,9.48c1.16-1.42,2.27-2.94,3.34-4.54a24.11,24.11,0,0,0,2.54-4.94h17.89a77.86,77.86,0,0,1-5.88,11.48,67.48,67.48,0,0,1-7.21,9.61l14.55,15.76H671.73l-5.75-6A49.09,49.09,0,0,1,654.24,545a39.08,39.08,0,0,1-12,1.94m-6.94-21.36a5.65,5.65,0,0,0,2,4.07,7.92,7.92,0,0,0,5.74,1.93,20.69,20.69,0,0,0,6-.93,27.29,27.29,0,0,0,6-2.67l-11.22-11.61-3.07,1.6a11.89,11.89,0,0,0-4.27,3.6,7.32,7.32,0,0,0-1.2,4m11.75-29,1.06,1.2a17.39,17.39,0,0,0,4.68-3.87,7.32,7.32,0,0,0,1.73-4.68,5.6,5.6,0,0,0-1.33-3.54,4.69,4.69,0,0,0-3.88-1.67,5.48,5.48,0,0,0-3.93,1.61,5.28,5.28,0,0,0-1.67,4,8,8,0,0,0,.73,3.27,13.72,13.72,0,0,0,2.61,3.68" transform="translate(-158.68 -451.72)"/><path d="M737.66,547.44a47,47,0,0,1-17.09-3,39.1,39.1,0,0,1-13.15-8.21A36.71,36.71,0,0,1,699,523.88a39.08,39.08,0,0,1-3-15.29,38.27,38.27,0,0,1,3-15.09,36.23,36.23,0,0,1,8.41-12.21,40.4,40.4,0,0,1,13.15-8.21A46.34,46.34,0,0,1,737.79,470a42.64,42.64,0,0,1,8.82.93,36.42,36.42,0,0,1,7.34,2.27V492.3a36.84,36.84,0,0,0-5.61-1.93,32,32,0,0,0-8.54-1q-10.41,0-16.29,5.6a18.11,18.11,0,0,0-5.87,13.62,18.56,18.56,0,0,0,5.87,14q5.88,5.61,16.29,5.61a30.3,30.3,0,0,0,8.54-1.07,41.86,41.86,0,0,0,5.61-2v19.09a33.3,33.3,0,0,1-7.28,2.27,44.1,44.1,0,0,1-9,.93" transform="translate(-158.68 -451.72)"/><path d="M801.22,547.44a41.13,41.13,0,0,1-15.83-3,38.64,38.64,0,0,1-12.55-8.21A38.11,38.11,0,0,1,764.56,524a39.14,39.14,0,0,1-3-15.36A37.89,37.89,0,0,1,785.39,473a41.13,41.13,0,0,1,15.83-3,41.6,41.6,0,0,1,15.88,3A38,38,0,0,1,841,508.59,39,39,0,0,1,838,524a37.51,37.51,0,0,1-20.9,20.49,41.6,41.6,0,0,1-15.88,3m0-18.55a17.28,17.28,0,0,0,13.48-5.81,20.9,20.9,0,0,0,5.21-14.49,20.34,20.34,0,0,0-5.21-14.08,18.32,18.32,0,0,0-26.77,0,20.16,20.16,0,0,0-5.27,14.08,20.72,20.72,0,0,0,5.27,14.49,17.18,17.18,0,0,0,13.29,5.81" transform="translate(-158.68 -451.72)"/></svg>